<svg width="30" height="30" viewBox="0 0 30 30" fill="none" xmlns="http://www.w3.org/2000/svg">
<circle cx="15" cy="15" r="15" fill="#E33F68"/>
<path d="M21.0111 7.5148L12.7547 9.50742C12.3142 9.61812 12.0016 10.0056 12.0016 10.4484L11.9447 18.6264C11.5611 18.3912 11.1063 18.2528 10.5947 18.2528C9.30158 18.2528 8.25 19.2076 8.25 20.37C8.25 21.5323 9.30158 22.501 10.6089 22.501C11.9163 22.501 12.9679 21.5462 12.9679 20.37V13.2159L20.7411 11.251V16.9936C20.3574 16.7583 19.9026 16.62 19.3911 16.62C18.0837 16.62 17.0321 17.5748 17.0321 18.751C17.0321 19.9272 18.0837 20.882 19.3911 20.882C20.67 20.882 21.7216 19.9548 21.75 18.8063V8.08214C21.75 7.70853 21.3947 7.43178 21.0111 7.5148Z" fill="white"/>
</svg>
